<svg id="Layer_2" data-name="Layer 2" xmlns="http://www.w3.org/2000/svg" viewBox="0 0 521.25 569.2"><defs><style>.cls-1{fill:#fed700;}</style></defs><path class="cls-1" d="M387.28,168.45c6.13-2,12.23-4.09,18.38-6,19.91-6.14,39.93-11.78,60.54-15.18,10-1.64,20-2.52,30.09-3.36A99.12,99.12,0,0,1,537,149c13.95,4.75,23.63,13.89,26.54,28.84,2.12,10.89-.66,21.27-4.74,31.25C552.71,224,543.18,236.62,533.1,249c-9.13,11.18-19.38,21.27-29.82,31.12A322.55,322.55,0,0,1,473,305.76c-.88.64-1.71,1.34-2.57,2,11.3,9.73,22.35,18.94,32.93,28.74,7.5,7,14.52,14.31,21.34,21.83,11.95,13.17,22.79,27.28,30.52,43.42,4.78,10,8.3,20.38,7.71,31.71-.7,13.31-6.77,23.5-18,30.56-10.28,6.48-21.84,8.37-33.71,8.89-27.29,1.18-53.55-4.59-79.61-11.79a413,413,0,0,1-43.2-14c-2.58-1-3.23.39-3.5,2.19-1.1,7.32-2.66,14.54-4.14,21.79-2.25,11-5,21.83-8.06,32.6C368,520.22,362.08,536.3,354,551.51c-4.88,9.15-10.54,17.83-17.73,25.31-8.68,9-19.24,15.32-31.95,15.8-10.41.38-19.93-3.43-28.17-10-14.73-11.84-23.47-27.78-31-44.65-10.82-24.38-17.22-50-22.39-76.06-.77-3.88-2-7.72-2.26-11.63-.22-3.26-1.67-3-3.74-2.27-8.77,3.24-17.66,6.14-26.6,8.87-18.93,5.8-38,10.82-57.64,13.78a230.51,230.51,0,0,1-26.64,2.44c-12.27.42-24.17-.8-35.82-4.86C51,461.54,41.42,445.85,43.22,427c1.38-14.44,7.88-27.29,15.86-39.31a241.4,241.4,0,0,1,31-37.55c8.14-8.12,16.26-16.25,24.85-23.88,6.67-5.91,13.53-11.61,20.51-17.16,1.49-1.19,1.17-1.57.12-2.37-12.28-9.42-23.77-19.74-35.19-30.19-17.51-16-33-33.64-45.44-53.85C47.73,211,42.66,198.55,43.06,184.53c.41-14.68,7.5-25.41,20.06-32.54,8.77-5,18.51-6.69,28.41-8a97.69,97.69,0,0,1,17.66-.61,252.45,252.45,0,0,1,32.38,3.86c14.55,2.66,28.87,6.15,43.09,10.13,10.92,3.06,21.55,7,32.29,10.56,2.31.77,3,.69,3.54-2.13,4.42-24.41,10.11-48.5,18.45-71.92,5.92-16.64,13.26-32.58,23.9-46.72,8.65-11.48,19.21-20.49,34.1-23.17,8.37-1.51,16.13.06,23.48,3.62,15.6,7.56,24.73,21.21,32.83,35.76,13.88,25,21.46,52.06,27.5,79.71q2.78,12.68,5.54,25.35Q386.79,169.65,387.28,168.45Zm-45.47,51.71c-.57.18-1.47-.07-1.47.9s.9.72,1.47.9c5.65,4.76,12.25,8,18.63,11.59.79.44,1.64,1.5,2.74.51.83-.74.6-1.75.43-2.63-1.09-5.73-1-11.64-2.52-17.3.3-.95,0-1.27-1-1-1.28.77-2.55-.42-4.11.31C351.26,215.67,346.4,217.61,341.81,220.16ZM500.7,172.52c-7.68-.77-16.08.44-24.35,1.75a285.06,285.06,0,0,0-35.88,7.92c-16.19,4.74-32.3,9.7-48,15.95-1.4.56-2,.5-1.5,2.53a68,68,0,0,1,1.82,12.57c.78,11.58,2.46,23.09,2.68,34.73.07,3.47-.53,7.68,4.06,10.36a414.53,414.53,0,0,1,43.62,29.57,2.24,2.24,0,0,0,3.36-.13,90.08,90.08,0,0,1,8.07-6.48c13.38-10,25.75-21.1,37.95-32.43,7.07-6.57,13.38-13.87,19.7-21.18,7.33-8.48,13.71-17.53,18.28-27.78,1.89-4.24,3.76-8.76,3.07-13.36-.91-6-5.21-9.53-10.79-11.67C515.89,172.22,508.7,172.36,500.7,172.52ZM505,444.65a65.52,65.52,0,0,0,15.44-1.74c9.46-2.05,14.63-8.38,13.29-15.92a59.69,59.69,0,0,0-9.05-21.81c-11-17.08-25.13-31.35-40-45.09C472.74,349,460,339,447.43,328.71c-1.51-1.24-2.72-1.74-4.77-.2-5.36,4-11,7.66-16.45,11.51-9,6.38-18.31,12.38-27.65,18.28-1.1.7-2.49,1-2.47,2.75.05,4-1.16,7.92-.85,12,.38,5-.63,9.87-.95,14.8-.58,8.85-1.89,17.67-3.15,26.46-.24,1.66.26,1.72,1.45,2.25,9,4,18.48,7,27.8,10.24a428.16,428.16,0,0,0,43.26,12.43C477.3,442.41,491.1,443.72,505,444.65ZM302.79,561.28c1.65-.27,3-.11,4.53-.6,7.08-2.32,11.14-7.85,15.15-13.51,9.52-13.43,14.8-28.73,19.79-44.21,6.78-21,10.45-42.72,14.12-64.42.3-1.79-.12-2.9-2.37-3.83-16.47-6.79-33-13.4-48.45-22.49a4.64,4.64,0,0,0-5.23,0c-1.34.84-2.68,1.69-4.09,2.41-14.69,7.55-29.91,13.89-45.19,20.11-2.18.88-2.43,1.52-1.83,3.74,1,3.68,1.29,7.55,1.93,11.33,1.95,11.43,4.27,22.78,7.13,34a281.63,281.63,0,0,0,13.89,42c4.46,10.39,9.57,20.42,17.38,28.68C293.06,558.21,297.32,561.42,302.79,561.28Zm54.45-382.52a29.08,29.08,0,0,1-.8-3.27,379.42,379.42,0,0,0-7.06-38.13,282.94,282.94,0,0,0-15.59-48.45C329,77.8,323.27,67.36,314,59.16c-9.64-8.56-17.12-5-24.18,2.35-6.76,7.08-11.47,15.65-15.51,24.7a268.17,268.17,0,0,0-14.26,41,468.78,468.78,0,0,0-10,48.43c-.49,3.12,0,4.17,2.53,5.28,15.36,6.7,30.92,12.94,45.95,20.4,2,1,4.24,2.76,7.42,1.27,16.25-7.59,32.62-14.92,49.32-21.47C356.43,180.69,357.66,180.19,357.24,178.76Zm-250.76-5.54c-8.28,0-16.39.2-24.18,3.88-6.82,3.22-9,9.52-7,17,4.52,16.43,15.26,29,26.26,41.14a332.51,332.51,0,0,0,25.58,25.2q16,14.19,32.89,27.18c1.51,1.15,2.14,1.5,3.93.24,12.2-8.6,24.24-17.5,37-25.23,7-4.26,11.58-8.56,9.78-17.29-.27-1.32.66-2.84.69-4.28a276.49,276.49,0,0,1,4.07-39.25c.39-2.29-.45-3.42-2.86-4.29-19.48-7-39.12-13.38-59.31-18C137.9,175.85,122.35,173.37,106.48,173.22Zm104.18,196.9a28.79,28.79,0,0,0,0-4.05c-.54-3.77-.25-7.38-4.78-9.94A309.59,309.59,0,0,1,171.62,334c-3.14-2.38-6.51-6.28-9.72-6.23s-6.63,3.95-9.36,6.91a1.93,1.93,0,0,1-.3.27c-11.94,8.77-22.84,18.77-33.61,28.88a244.88,244.88,0,0,0-25,26.68C86.21,399.81,79,409.32,75.51,421c-3.07,10.43.59,17.34,11.52,20.36,7.33,2,14.77,2,22.36,1.77a212.51,212.51,0,0,0,33.55-4.1c24.26-4.75,47.52-12.73,70.68-21.14,1.12-.41,2-.79,1.69-2.2-.78-3.76-1-7.61-1.55-11.39C212.05,392.94,211.51,381.52,210.66,370.12Zm29.16-39.42c0,1.89-.35,3.86.07,5.65.71,3,0,6.5,3.55,8.56,18.78,10.8,37.48,21.74,57,31.23a4.86,4.86,0,0,0,5,0c9.95-5.25,20.1-10.13,30-15.52,9.14-5,18.06-10.42,27-15.83,1.13-.69,2.9-1.12,3-3.3.42-9.74,1.05-19.47,1.56-29.21.61-11.7-.9-23.36-.73-35,0-2.65-.73-4.12-3.16-5.23a80.89,80.89,0,0,1-7.49-4.43c-16.48-9.79-33.32-18.9-50.36-27.68a3.11,3.11,0,0,0-3.24-.23c-3.95,2.12-8.22,3.69-12.11,5.82-16,8.74-32.11,17.25-47.58,26.9-1.46.91-2.62,1.56-2.49,3.58.68,9.95-1,19.84-.81,29.78C239.12,314.1,238.77,322.42,239.82,330.7Zm28.67-109.78c-7.21-3.25-14.06-6.24-20.82-9.42-1.94-.92-2.73,0-2.89,1.47-.68,6.34-1.14,12.72-1.74,19.07-.34,3.56,1.43,3.1,3.51,1.87C253.71,229.71,260.84,225.45,268.49,220.92Zm-25.31,159.6c-.6,8.21,1.42,15.64,1.59,23.19,0,2.07,1.51,1.06,2.64.57,5.91-2.56,11.84-5.1,17.8-7.57,2.56-1.07,1.51-2.79.26-3.53C258.23,388.89,250.86,384.84,243.18,380.52Zm93.51,14.22c7.7,3.35,14.71,6.37,21.7,9.46,1.24.55,2.68,1.64,2.82-.71.39-6.1,1.79-12.09,1.74-18.25,0-3.27-1.18-3.72-3.84-2.3C351.84,386.8,345,391.35,336.69,394.74ZM419.58,308c-7.05-4.64-13.38-9.93-20.78-14.21v28C406.33,317.64,412.49,312.33,419.58,308Zm-232.74.06,20.48,13.52V294.33C199.61,298.24,193.51,303.17,186.84,308.08ZM363.47,381c-.08,0-.17-.13-.22-.11s-.16.15-.23.23l.44.13A2.18,2.18,0,0,1,363.47,381Z" transform="translate(-43 -23.44)"/><path class="cls-1" d="M341.85,308.2c-.84,21.14-15.87,37.44-38.8,37.42-22.44,0-39.09-15.76-38.75-38.1.37-23.6,18-37.54,38.83-37.36C325.27,270.36,341.58,285.8,341.85,308.2Z" transform="translate(-43 -23.44)"/></svg>